<svg width="32" height="32" viewBox="0 0 32 32" fill="none" xmlns="http://www.w3.org/2000/svg">
<rect width="32" height="32" fill="white"/>
<path d="M26.1332 22.3092C26.5417 26.428 23.3064 30 19.1674 30L12.8326 30C8.69357 30 5.45832 26.428 5.86681 22.3092L6.81939 12.7039C6.97159 11.1693 8.26255 10 9.80475 10L22.1953 10C23.7374 10 25.0284 11.1693 25.1806 12.7039L26.1332 22.3092Z" stroke="#E2E2E2" stroke-width="2"/>
<line x1="12" y1="17" x2="20" y2="17" stroke="#E2E2E2" stroke-width="2" stroke-linecap="round" stroke-linejoin="round"/>
<line x1="12" y1="21" x2="20" y2="21" stroke="#E2E2E2" stroke-width="2" stroke-linecap="round" stroke-linejoin="round"/>
<path fill-rule="evenodd" clip-rule="evenodd" d="M19.8597 9.3368C19.9505 8.92007 20 8.47347 20 8C20 4.93823 17.931 3 16 3C14.069 3 12 4.93823 12 8C12 8.47347 12.0495 8.92007 12.1403 9.33679C11.4501 9.54249 10.8222 9.80164 10.2757 10.1039C10.0966 9.43984 10 8.73308 10 8C10 4.13401 12.6863 1 16 1C19.3137 1 22 4.13401 22 8C22 8.73308 21.9034 9.43985 21.7243 10.1039C21.1778 9.80164 20.5499 9.54249 19.8597 9.3368Z" fill="#E2E2E2"/>
</svg>
