<svg width="100" height="86" viewBox="0 0 100 86" fill="none" xmlns="http://www.w3.org/2000/svg">
<path d="M99.7041 38.9315L81.9306 2.45879C81.4398 1.45137 80.4173 0.8125 79.297 0.8125H20.7032C19.5827 0.8125 18.5604 1.45156 18.0696 2.45879L0.296095 38.9315C-0.119531 39.7846 -0.0962884 40.7862 0.3584 41.619C0.813088 42.4518 1.64317 43.013 2.58555 43.1243C5.08087 43.4194 7.52033 43.4632 9.96096 43.2725V82.258C9.96096 83.8759 11.2727 85.1877 12.8906 85.1877C16.7473 85.1877 84.583 85.1877 87.1095 85.1877C88.7275 85.1877 90.0392 83.8759 90.0392 82.258V43.2737C92.4834 43.4645 94.9523 43.4153 97.4146 43.1241C98.357 43.0128 99.1871 42.4516 99.6418 41.6188C100.096 40.786 100.12 39.7845 99.7041 38.9315ZM59.7093 6.67189L68.1704 30.6911C59.7558 39.8561 40.1522 39.7553 31.8297 30.6911L40.2909 6.67189H59.7093ZM7.50158 37.5206L22.5344 6.67189H34.0786L25.9071 29.8688C21.7399 35.1489 14.2555 37.4219 7.50158 37.5206ZM35.3516 79.3283H15.8203V70.5392H35.3516V79.3283ZM58.7892 79.3283H41.211V55.8907H58.7892V79.3283ZM84.1798 79.3283H64.6486V70.5392H84.1798V79.3283ZM84.1798 64.6798H64.6486V52.961C64.6486 51.3431 63.3368 50.0313 61.7189 50.0313H38.2813C36.6633 50.0313 35.3516 51.3431 35.3516 52.961V64.6798H15.8203V42.3399C20.4637 41.2018 25.0245 39.0327 28.5165 35.6858C39.2585 45.9741 60.7585 45.9579 71.4837 35.6858C74.9453 39.0034 79.4865 41.1895 84.1798 42.3399V64.6798ZM74.0929 29.8684L65.9214 6.67189H77.4656L92.4986 37.5208C85.7689 37.4216 78.2759 35.1686 74.0929 29.8684Z" fill="#020202"/>
</svg>
